<svg xmlns="http://www.w3.org/2000/svg" width="24" height="24" viewBox="0 0 24 24">
    <g fill="none" fill-rule="evenodd">
        <g>
            <g>
                <path d="M0 0H24V24H0z" transform="translate(-392 -379) translate(392 379)"/>
                <g stroke="#0F0F15" stroke-width="1.5">
                    <path stroke-linejoin="round" d="M9 0c3.526 0 6.444 2.608 6.93 6H16v5.571L18 15H0l2-3.429V6h.07C2.557 2.608 5.475 0 9 0z" transform="translate(-392 -379) translate(392 379) translate(3 3)"/>
                    <path d="M9 18c1.657 0 3-1.343 3-3H6c0 1.657 1.343 3 3 3z" transform="translate(-392 -379) translate(392 379) translate(3 3)"/>
                </g>
            </g>
        </g>
    </g>
</svg>
